HIERARCHY
ROOT Hips
{
	OFFSET -13.091600 -28.302996 44.698402
	CHANNELS 6 Xposition Yposition Zposition Zrotation Xrotation Yrotation
	JOINT Chest
	{
		OFFSET -0.673000 0.623899 5.369202
		CHANNELS 6 Xposition Yposition Zposition Zrotation Xrotation Yrotation
		JOINT Chest2
		{
			OFFSET 0.000000 0.000000 4.415001
			CHANNELS 6 Xposition Yposition Zposition Zrotation Xrotation Yrotation
			JOINT Neck
			{
				OFFSET 0.000000 0.000002 10.273300
				CHANNELS 6 Xposition Yposition Zposition Zrotation Xrotation Yrotation
				JOINT Head
				{
					OFFSET 0.000000 0.000000 2.173897
					CHANNELS 6 Xposition Yposition Zposition Zrotation Xrotation Yrotation
					End Site
					{
						OFFSET 0.000000 0.000000 9.961800
					}
				}
			}
			JOINT LeftCollar
			{
				OFFSET 2.359900 -0.565201 5.928101
				CHANNELS 6 Xposition Yposition Zposition Zrotation Xrotation Yrotation
				JOINT LeftShoulder
				{
					OFFSET 5.443700 0.000000 0.000000
					CHANNELS 6 Xposition Yposition Zposition Zrotation Xrotation Yrotation
					JOINT LeftElbow
					{
						OFFSET 0.000000 0.000000 -10.615799
						CHANNELS 6 Xposition Yposition Zposition Zrotation Xrotation Yrotation
						JOINT LeftWrist
						{
							OFFSET 0.000000 -0.000002 -13.110302
							CHANNELS 6 Xposition Yposition Zposition Zrotation Xrotation Yrotation
							End Site
							{
								OFFSET 0.000000 0.000000 -2.173901
							}
						}
					}
				}
			}
			JOINT RightCollar
			{
				OFFSET -2.636600 -1.718800 6.889698
				CHANNELS 6 Xposition Yposition Zposition Zrotation Xrotation Yrotation
				JOINT RightShoulder
				{
					OFFSET -4.139101 0.000000 0.000000
					CHANNELS 6 Xposition Yposition Zposition Zrotation Xrotation Yrotation
					JOINT RightElbow
					{
						OFFSET 0.000000 0.000000 -10.471802
						CHANNELS 6 Xposition Yposition Zposition Zrotation Xrotation Yrotation
						JOINT RightWrist
						{
							OFFSET 0.000000 0.000000 -12.281898
							CHANNELS 6 Xposition Yposition Zposition Zrotation Xrotation Yrotation
							End Site
							{
								OFFSET 0.000000 -0.000002 -2.173901
							}
						}
					}
				}
			}
		}
	}
	JOINT LeftHip
	{
		OFFSET 2.273400 0.176701 -2.518002
		CHANNELS 6 Xposition Yposition Zposition Zrotation Xrotation Yrotation
		JOINT LeftKnee
		{
			OFFSET 0.000000 -0.000002 -20.456402
			CHANNELS 6 Xposition Yposition Zposition Zrotation Xrotation Yrotation
			JOINT LeftAnkle
			{
				OFFSET 0.000000 -0.000002 -16.635300
				CHANNELS 6 Xposition Yposition Zposition Zrotation Xrotation Yrotation
				End Site
				{
					OFFSET 0.000000 -8.812399 0.000001
				}
			}
		}
	}
	JOINT RightHip
	{
		OFFSET -1.914800 0.018101 -2.699299
		CHANNELS 6 Xposition Yposition Zposition Zrotation Xrotation Yrotation
		JOINT RightKnee
		{
			OFFSET 0.000000 -0.000002 -20.148901
			CHANNELS 6 Xposition Yposition Zposition Zrotation Xrotation Yrotation
			JOINT RightAnkle
			{
				OFFSET 0.000000 -0.000002 -16.838301
				CHANNELS 6 Xposition Yposition Zposition Zrotation Xrotation Yrotation
				End Site
				{
					OFFSET 0.000000 -8.328398 0.000001
				}
			}
		}
	}
}
MOTION
Frames: 6
Frame Time: 0.041667
2.733099 -26.835598 41.111305 156.127551 3.211550 8.210563 -0.673003 0.623900 5.369218 -1.021215 10.294630 -7.659325 0.000001 -0.000002 4.415009 0.464438 -1.289569 -0.175307 -0.000006 -0.000003 10.273301 -31.468331 7.922037 -4.916643 -0.000004 -0.000003 2.173902 2.000402 -2.296313 0.194661 2.359898 -0.565200 5.928093 -4.161880 7.518237 -11.588960 5.443696 -0.000004 -0.000002 -54.097199 25.384463 3.164315 -0.000003 0.000004 -10.615790 -148.726713 -128.100362 213.463424 0.000002 -0.000002 -13.110287 -93.023755 4.675202 -13.448314 -2.636604 -1.718803 6.889693 -8.192094 -5.521481 -5.438484 -4.139090 -0.000004 0.000000 194.090508 -150.923644 280.663128 -0.000004 0.000000 -10.471795 -24.646210 1.710416 5.602500 -0.000004 -0.000004 -12.281904 -8.429928 -1.799857 -4.668383 2.273398 0.176707 -2.517999 -133.794076 -145.439603 -150.621681 0.000001 -0.000001 -20.456402 -49.904238 51.646479 25.674906 -0.000003 -0.000006 -16.635300 33.539692 1.758539 14.342467 -1.914800 0.018102 -2.699297 131.372883 207.617014 177.331860 0.000000 -0.000003 -20.148907 62.674513 68.670216 -25.267685 0.000002 -0.000002 -16.838303 -14.781841 32.840113 2.296584
2.872297 -26.058800 41.090103 158.508173 3.308906 7.631817 -0.673001 0.623899 5.369201 22.643716 7.811957 -9.004674 0.000000 0.000007 4.415007 -22.908453 -1.948353 -2.297077 -0.000001 -0.000003 10.273300 -31.528075 7.994588 -4.526158 0.000002 -0.000006 2.173908 1.932908 -2.296227 0.028985 2.359900 -0.565202 5.928102 -4.827191 6.178689 -11.153193 5.443701 -0.000003 0.000001 -54.425703 26.582326 4.395577 0.000000 0.000011 -10.615794 -148.185872 -127.878162 213.612841 -0.000004 0.000001 -13.110300 -93.799002 4.800827 -13.491208 -2.636603 -1.718806 6.889709 -7.798972 -5.074335 -5.149190 -4.139094 0.000000 -0.000006 194.850216 -151.012081 280.947264 0.000002 0.000002 -10.471802 -25.485396 1.152488 4.924669 -0.000006 -0.000001 -12.281899 -7.621991 -1.033189 -1.791567 2.273398 0.176702 -2.518007 -136.284704 -146.369123 -151.042872 0.000000 -0.000004 -20.456398 -52.870927 51.292415 28.512495 -0.000002 -0.000004 -16.635300 34.704707 1.861811 15.299975 -1.914798 0.018102 -2.699298 124.550207 210.021405 172.279651 0.000000 -0.000003 -20.148905 86.498219 71.083438 -42.268837 0.000004 -0.000002 -16.838301 -16.190313 35.662518 1.443120
3.001900 -25.312698 41.049404 160.893958 3.494317 6.979750 -0.673000 0.623902 5.369206 20.178185 8.125492 -8.321119 0.000001 -0.000004 4.415001 -20.309914 -1.983274 -2.059618 -0.000002 -0.000000 10.273301 -31.289667 8.028041 -4.304068 -0.000003 0.000002 2.173904 1.743740 -2.335020 0.041477 2.359899 -0.565206 5.928097 -5.523206 4.855710 -10.848172 5.443696 0.000000 0.000010 -54.965773 27.786702 5.722528 0.000005 0.000010 -10.615798 -147.573354 -127.512706 213.773856 -0.000001 0.000000 -13.110296 -94.381979 4.908673 -13.470182 -2.636602 -1.718806 6.889695 -6.659221 -4.413083 -4.692741 -4.139101 0.000001 0.000002 194.852429 -150.735417 281.154355 -0.000002 0.000000 -10.471793 -26.316280 0.708787 4.338598 0.000005 -0.000004 -12.281898 -7.433104 0.104346 0.704507 2.273400 0.176704 -2.518003 -138.465215 -147.250477 -151.176976 -0.000000 -0.000000 -20.456400 -56.423547 50.698688 31.824355 -0.000003 -0.000000 -16.635303 35.564255 1.921204 16.401647 -1.914798 0.018111 -2.699298 119.145861 211.861663 167.083284 0.000005 -0.000003 -20.148905 111.198997 70.273760 -61.351751 0.000002 -0.000004 -16.838303 -18.282183 36.815877 0.479591
3.125898 -24.593597 40.993301 163.376786 3.677332 6.322281 -0.672999 0.623895 5.369208 17.617708 8.490445 -7.602878 0.000002 -0.000001 4.415006 -17.686790 -2.018357 -1.815041 -0.000007 0.000001 10.273304 -30.801356 7.966691 -4.106962 -0.000001 -0.000003 2.173910 1.431961 -2.519012 0.082935 2.359900 -0.565198 5.928097 -4.716291 6.530724 -10.573284 5.443699 -0.000001 -0.000003 -55.020162 27.269648 3.865918 0.000001 0.000004 -10.615796 -146.684186 -127.361718 214.239115 -0.000000 0.000004 -13.110299 -95.111846 5.006507 -13.480885 -2.636605 -1.718801 6.889699 -6.196769 -3.972886 -4.689632 -4.139097 -0.000008 -0.000003 195.621508 -150.760102 281.694815 -0.000000 -0.000001 -10.471803 -27.223498 0.352893 3.845973 -0.000003 0.000003 -12.281894 -7.449080 0.739903 2.970053 2.273401 0.176703 -2.518003 -140.406478 -148.143470 -151.135462 -0.000001 0.000001 -20.456396 -60.172150 49.973403 35.052719 -0.000002 -0.000003 -16.635300 36.722058 2.127178 17.053734 -1.914797 0.018104 -2.699299 115.262461 213.281031 162.261662 0.000000 -0.000007 -20.148901 128.957578 67.261224 -74.873770 0.000002 -0.000004 -16.838305 -20.797134 36.239211 -0.598618
3.244799 -23.892998 40.928703 166.559846 4.049799 5.642200 -0.673000 0.623892 5.369213 14.340016 8.739067 -6.851942 0.000002 0.000002 4.415014 -15.002751 -2.046436 -1.581730 -0.000001 -0.000000 10.273301 -30.192038 7.841010 -3.852543 0.000001 -0.000003 2.173908 1.111974 -2.475659 0.321534 2.359897 -0.565202 5.928101 -5.013203 6.738694 -10.264675 5.443698 -0.000002 0.000005 -54.767472 27.604963 3.304688 -0.000000 0.000006 -10.615797 -146.166390 -127.296503 214.635211 -0.000005 -0.000002 -13.110292 -96.105440 5.169948 -13.558372 -2.636605 -1.718805 6.889705 -5.886147 -3.639500 -4.639969 -4.139100 -0.000006 0.000005 196.413154 -150.575195 282.184402 0.000000 -0.000001 -10.471804 -27.987079 0.020536 3.352646 0.000000 -0.000001 -12.281897 -7.753805 1.140873 4.691446 2.273402 0.176698 -2.518002 -142.690971 -148.955962 -150.833854 0.000000 -0.000003 -20.456398 -63.518915 49.316882 37.855152 -0.000006 -0.000001 -16.635302 37.483163 2.290183 17.361021 -1.914795 0.018097 -2.699296 111.912691 214.444403 157.811616 -0.000002 -0.000003 -20.148905 138.262263 65.140388 -81.312261 -0.000001 -0.000004 -16.838306 -22.068826 34.524134 -1.398554
3.358599 -23.203194 40.864204 168.979891 4.031228 5.274788 -0.673001 0.623897 5.369211 11.905979 9.200477 -6.416040 0.000002 -0.000005 4.414998 -12.312388 -2.068287 -1.345349 -0.000003 0.000003 10.273309 -29.528380 7.729804 -3.438783 -0.000005 -0.000001 2.173898 0.914538 -2.414862 0.593011 2.359902 -0.565201 5.928097 -5.181017 6.838847 -9.974427 5.443697 0.000001 -0.000004 -54.456630 27.887900 2.600726 -0.000001 0.000006 -10.615794 -145.940106 -127.435375 214.946982 -0.000010 -0.000001 -13.110290 -97.344054 5.319413 -13.681134 -2.636603 -1.718800 6.889703 -5.732816 -3.388076 -4.912556 -4.139099 0.000000 -0.000004 197.661740 -150.293313 283.107516 -0.000001 0.000002 -10.471799 -28.468695 -0.105542 3.283212 -0.000000 0.000000 -12.281898 -6.781246 1.177668 4.938633 2.273399 0.176701 -2.518003 -144.104356 -149.913240 -150.814853 0.000002 0.000000 -20.456396 -66.688485 48.846480 40.365773 -0.000005 -0.000004 -16.635298 38.015160 2.264418 17.558217 -1.914800 0.018099 -2.699300 110.532145 215.175944 154.201834 0.000006 -0.000001 -20.148905 143.333296 61.817358 -84.175668 0.000002 -0.000002 -16.838303 -24.969619 31.752726 -2.279424
